<svg width="183" height="43" viewBox="0 0 183 43" fill="none" xmlns="http://www.w3.org/2000/svg">
<path d="M8.48 24.52L33.12 24.92L32.56 35.08L16.24 35.56V36.88L33.08 36.32L32.84 40.52L9.56 41.84L9 31.04L26.6 30.88L26.64 29.6L8.76 29.68L8.48 24.52ZM27.56 3.6L34.36 4.36L33.96 11.48L38.16 11.84L37.68 18.2L33.64 18L33.32 23.96L26.96 23.84L27.04 20.8L24.28 24.08C23.88 23.84 23.48 23.5333 23.08 23.16C22.7067 22.7867 22.3467 22.4 22 22C21.8133 21.8133 21.6267 21.6133 21.44 21.4C21.28 21.1867 21.12 20.9733 20.96 20.76C20.7733 20.5733 20.6 20.3733 20.44 20.16C20.28 19.9467 20.12 19.7333 19.96 19.52C19.4 20.2133 18.6933 20.9867 17.84 21.84C16.9867 22.6933 16.12 23.3867 15.24 23.92C14.2 23.3333 13.2267 22.64 12.32 21.84C11.44 21.0133 10.6667 20.12 10 19.16C9.33333 20.04 8.62667 20.88 7.88 21.68C7.13333 22.4533 6.32 23.1467 5.44 23.76L0.32 18.92C1.84 17.6667 3.04 16.1867 3.92 14.48C4.8 12.7733 5.33333 10.92 5.52 8.92L1.76 8.6L1.2 1.24L26.68 4.04L26.52 10.6L23.48 10.36C23.5867 12.04 23.96 13.5867 24.6 15C25.24 16.3867 26.08 17.68 27.12 18.88L27.56 3.6ZM13.56 9.52C13.72 11.04 13.9333 12.32 14.2 13.36C14.4933 14.3733 14.7733 14.9867 15.04 15.2C15.2 14.96 15.4 14.36 15.64 13.4C15.9067 12.4133 16.08 11.2 16.16 9.76L13.56 9.52ZM63.8644 27C65.4377 27.56 66.7844 28.4667 67.9044 29.72C69.0244 30.9467 69.531 32.44 69.4244 34.2C69.2644 35.5867 68.8244 36.7733 68.1044 37.76C67.3844 38.7467 66.491 39.56 65.4244 40.2C64.3577 40.8667 63.1577 41.36 61.8244 41.68C60.491 42.0267 59.131 42.2533 57.7444 42.36C56.3844 42.3867 54.9577 42.3067 53.4644 42.12C51.971 41.9333 50.5977 41.5467 49.3444 40.96C48.0644 40.3733 46.9844 39.5733 46.1044 38.56C45.251 37.5733 44.7844 36.32 44.7044 34.8C44.5977 33.1733 44.9577 31.8 45.7844 30.68C46.611 29.5333 47.6777 28.6133 48.9844 27.92C50.291 27.2267 51.7177 26.7333 53.2644 26.44C54.8377 26.1467 56.331 26 57.7444 26C58.651 26 59.5177 26.0667 60.3444 26.2C61.171 26.3067 61.971 26.4667 62.7444 26.68L63.2644 3.52L70.1844 4.28L69.8244 11.76L74.1044 12.08L73.6644 18.52L69.5444 18.32L69.1044 27.04L63.8644 27ZM63.1044 34.36C63.1044 33.8 62.9177 33.32 62.5444 32.92C62.171 32.52 61.7177 32.2 61.1844 31.96C60.6244 31.72 60.0244 31.56 59.3844 31.48C58.771 31.3733 58.2244 31.32 57.7444 31.32C57.1044 31.32 56.4644 31.3867 55.8244 31.52C55.1844 31.6533 54.611 31.84 54.1044 32.08C53.571 32.3467 53.131 32.6933 52.7844 33.12C52.4377 33.52 52.251 34.0133 52.2244 34.6C52.3044 35.1867 52.5177 35.6667 52.8644 36.04C53.211 36.4133 53.651 36.7067 54.1844 36.92C54.691 37.16 55.251 37.3067 55.8644 37.36C56.5044 37.44 57.131 37.4667 57.7444 37.44C58.2244 37.44 58.771 37.3733 59.3844 37.24C59.9977 37.1333 60.571 36.9467 61.1044 36.68C61.6644 36.44 62.131 36.12 62.5044 35.72C62.8777 35.3467 63.0777 34.8933 63.1044 34.36ZM46.4644 2.12L46.7044 7.52L52.5444 8.04L52.4244 2.8L59.9844 3.6L59.8244 25.4L39.7844 25.12L37.9044 1.2L46.4644 2.12ZM52.7844 19.36L52.6644 14.6L46.9844 14.24L47.2244 19.12L52.7844 19.36ZM100.209 21.52L94.6488 21.32L94.7288 15L100.449 15.32L100.889 3.92L107.569 4.68L105.249 40.44L99.4888 40.76L99.8888 29.8L96.4888 33.88C95.7154 33.64 94.9288 33.2667 94.1288 32.76C93.3288 32.2267 92.5554 31.64 91.8088 31C91.0354 30.36 90.3288 29.6933 89.6888 29C89.0488 28.28 88.5288 27.6 88.1288 26.96C87.7021 27.68 87.1288 28.4267 86.4088 29.2C85.6888 29.9467 84.9154 30.6667 84.0888 31.36C83.2354 32.08 82.3554 32.72 81.4488 33.28C80.5688 33.84 79.7554 34.2667 79.0088 34.56L74.5287 30C77.7288 28.6133 80.1154 26.7067 81.6888 24.28C83.2888 21.8267 84.0354 18.88 83.9288 15.44L83.7688 9.88L75.6088 9.24L75.1288 2L99.0088 4.6L98.8088 11.04L91.5688 10.52L91.5288 15.84C91.5288 18.9333 92.2221 21.68 93.6088 24.08C95.0221 26.4533 97.1154 28.2933 99.8888 29.6L100.209 21.52ZM135.313 3.64L142.153 4.44L141.753 11.84L145.993 12.16L145.553 18.6L141.433 18.4L140.953 27.04H135.793C137.393 27.5467 138.726 28.4267 139.793 29.68C140.86 30.9333 141.34 32.4267 141.233 34.16C141.126 35.6 140.7 36.8133 139.953 37.8C139.233 38.7867 138.326 39.6 137.233 40.24C136.113 40.88 134.886 41.36 133.553 41.68C132.22 42 130.913 42.2 129.633 42.28C128.3 42.3333 126.9 42.2667 125.433 42.08C123.966 41.8933 122.606 41.5067 121.353 40.92C120.073 40.36 119.006 39.5733 118.153 38.56C117.3 37.5733 116.846 36.3067 116.793 34.76C116.686 33.1333 117.033 31.76 117.833 30.64C118.66 29.52 119.726 28.6133 121.033 27.92C122.34 27.2267 123.766 26.7333 125.313 26.44C126.86 26.1467 128.34 26 129.753 26C130.633 26 131.473 26.0667 132.273 26.2C133.1 26.3067 133.9 26.4667 134.673 26.68L134.833 21.92L131.393 25.8C130.593 25.56 129.793 25.2133 128.993 24.76C128.193 24.3067 127.42 23.8 126.673 23.24C125.9 22.68 125.18 22.08 124.513 21.44C123.846 20.8 123.273 20.16 122.793 19.52C122.286 20.24 121.673 20.9467 120.953 21.64C120.26 22.3333 119.5 22.9733 118.673 23.56C117.846 24.1467 116.993 24.68 116.113 25.16C115.26 25.6133 114.433 25.9867 113.633 26.28L108.753 21.52C111.793 20.4533 114.153 18.9467 115.833 17C117.54 15.0267 118.353 12.48 118.273 9.36L110.273 8.76L109.713 1.48L133.233 4.08L133.113 10.56L126.033 10C126.086 12.8 126.926 15.1733 128.553 17.12C130.18 19.04 132.273 20.5067 134.833 21.52L135.313 3.64ZM134.993 34.32C134.993 33.76 134.806 33.2933 134.433 32.92C134.06 32.52 133.606 32.2 133.073 31.96C132.54 31.72 131.966 31.5467 131.353 31.44C130.74 31.3333 130.193 31.28 129.713 31.28C129.153 31.3067 128.553 31.3867 127.913 31.52C127.273 31.6267 126.673 31.8133 126.113 32.08C125.58 32.32 125.126 32.6533 124.753 33.08C124.406 33.48 124.233 33.9733 124.233 34.56C124.26 35.1467 124.46 35.6267 124.833 36C125.206 36.3733 125.66 36.6667 126.193 36.88C126.726 37.0933 127.3 37.24 127.913 37.32C128.553 37.4 129.14 37.4267 129.673 37.4C130.153 37.4 130.7 37.3333 131.313 37.2C131.926 37.0933 132.5 36.92 133.033 36.68C133.566 36.44 134.02 36.12 134.393 35.72C134.793 35.3467 134.993 34.88 134.993 34.32ZM168.218 6.56V10.96C168.218 12.5067 168.564 13.9333 169.258 15.24C169.951 16.5467 170.911 17.7067 172.138 18.72C173.338 19.7333 174.738 20.5867 176.338 21.28C177.964 21.9733 179.684 22.48 181.498 22.8L177.218 27.36C174.738 26.88 172.418 26 170.258 24.72C168.098 23.44 166.338 21.8667 164.978 20C164.364 20.9067 163.631 21.7867 162.778 22.64C161.924 23.4667 161.004 24.24 160.018 24.96C159.031 25.68 158.004 26.32 156.938 26.88C155.871 27.44 154.818 27.88 153.778 28.2L150.418 24.44C151.884 24.04 153.284 23.4267 154.618 22.6C155.978 21.7733 157.178 20.7867 158.218 19.64C159.258 18.52 160.084 17.28 160.698 15.92C161.338 14.56 161.658 13.1333 161.658 11.64V7.4L168.218 6.56ZM168.418 25.68V32.72L181.338 32.6V38.4L150.538 38.04V32.96L161.858 32.84V25.96L168.418 25.68Z" fill="#FF6F61"/>
</svg>
