<svg width="189" height="36" viewBox="0 0 189 36" fill="none" xmlns="http://www.w3.org/2000/svg">
<path d="M32.32 30.56V35.32H3.36V24.56H25.04V23.2H3.36V18.44H31.92V29.04H10.28V30.56H32.32ZM24.04 6.36H21.44L23.68 16.64H19.76L18.28 9.32L18.04 8.12L17.8 9.2L15.88 16.64H10.36L8.48 8.56L6.12 16.64H0.36L3.56 6.36H0.8V1.08H24.04V6.36ZM35.72 11.56H31.92V16.96H25.44V1.04H31.92V6.04H35.72V11.56ZM11.56 6.36L12.32 10.04L13.4 6.36H11.56ZM46.7756 35.28C45.5223 35.2533 44.429 35.0133 43.4956 34.56C42.589 34.1067 41.8423 33.5333 41.2556 32.84C40.669 32.1467 40.229 31.3467 39.9356 30.44C39.669 29.56 39.5356 28.6533 39.5356 27.72C39.5356 26.7867 39.6556 25.88 39.8956 25C40.1623 24.0933 40.5756 23.2933 41.1356 22.6C41.7223 21.9067 42.4823 21.3467 43.4156 20.92C44.349 20.4933 45.4956 20.2667 46.8556 20.24C48.109 20.2133 49.3223 20.2 50.4956 20.2C51.669 20.2 52.829 20.2 53.9756 20.2C55.149 20.2 56.3223 20.2 57.4956 20.2C58.6956 20.2 59.9223 20.2133 61.1756 20.24C62.5356 20.24 63.6823 20.4533 64.6156 20.88C65.549 21.3067 66.2956 21.88 66.8556 22.6C67.4423 23.2933 67.8556 24.0933 68.0956 25C68.3623 25.88 68.4956 26.7867 68.4956 27.72C68.4956 28.6533 68.349 29.56 68.0556 30.44C67.789 31.3467 67.3623 32.1467 66.7756 32.84C66.189 33.5333 65.429 34.1067 64.4956 34.56C63.589 35.0133 62.509 35.2533 61.2556 35.28C58.7223 35.3333 56.309 35.36 54.0156 35.36C51.7223 35.36 49.309 35.3333 46.7756 35.28ZM44.6556 1.04V4.4H50.2556V1.08H56.7356V18.16H38.1756V1.04H44.6556ZM71.7356 11.8H67.2156V18.88H60.7356V1.04H67.2156V6.28H71.7356V11.8ZM60.2556 29.76C61.029 29.7067 61.589 29.5333 61.9356 29.24C62.2823 28.9467 62.4556 28.44 62.4556 27.72C62.4556 26.9733 62.2823 26.4533 61.9356 26.16C61.589 25.8667 61.029 25.6933 60.2556 25.64C59.109 25.6133 58.029 25.6 57.0156 25.6C56.0023 25.5733 55.0023 25.56 54.0156 25.56C53.029 25.56 52.029 25.5733 51.0156 25.6C50.0023 25.6 48.9223 25.6133 47.7756 25.64C47.0023 25.6933 46.4423 25.8667 46.0956 26.16C45.749 26.4533 45.5756 26.9733 45.5756 27.72C45.5756 28.44 45.749 28.9467 46.0956 29.24C46.4423 29.5333 47.0023 29.7067 47.7756 29.76C48.9223 29.7867 50.0023 29.8 51.0156 29.8C52.029 29.8267 53.029 29.84 54.0156 29.84C55.0023 29.84 56.0023 29.8267 57.0156 29.8C58.029 29.8 59.109 29.7867 60.2556 29.76ZM44.6556 12.8H50.2556V9.76H44.6556V12.8ZM115.133 34.48H108.653V19.68H102.373L105.412 34.08H99.4125L96.0925 17.84L94.6125 9.88L93.3325 17.84L90.0125 34.08H83.2525L89.2925 6.64H83.7725V1.12H104.333V6.64H99.6525L101.093 13.6H108.653V1.04H115.133V34.48ZM129.508 35.44C128.255 35.4133 127.161 35.16 126.228 34.68C125.321 34.2267 124.575 33.64 123.988 32.92C123.401 32.2 122.961 31.3867 122.668 30.48C122.401 29.6 122.268 28.6933 122.268 27.76C122.268 26.8267 122.388 25.9067 122.628 25C122.895 24.0933 123.308 23.2933 123.868 22.6C124.455 21.88 125.215 21.3067 126.148 20.88C127.081 20.4267 128.228 20.1867 129.588 20.16C130.841 20.1333 132.055 20.12 133.228 20.12C134.401 20.12 135.561 20.12 136.708 20.12C137.881 20.12 139.055 20.12 140.228 20.12C141.428 20.12 142.655 20.1333 143.908 20.16C145.268 20.16 146.415 20.3867 147.348 20.84C148.281 21.2667 149.028 21.84 149.588 22.56C150.175 23.28 150.588 24.0933 150.828 25C151.095 25.9067 151.228 26.8267 151.228 27.76C151.228 28.6933 151.081 29.6 150.788 30.48C150.521 31.3867 150.095 32.2 149.508 32.92C148.921 33.64 148.161 34.2267 147.228 34.68C146.321 35.16 145.241 35.4133 143.988 35.44C141.455 35.4933 139.041 35.52 136.748 35.52C134.455 35.52 132.041 35.4933 129.508 35.44ZM140.468 6.36H136.668L140.508 18.32H134.628L131.948 10.52L131.268 8.28L130.628 10.4L126.748 18.44H119.588L125.028 6.36H120.028V1.08H140.468V6.36ZM154.548 12.36H150.028V18.8H143.548V1.04H150.028V6.84H154.548V12.36ZM142.988 29.84C143.761 29.7867 144.321 29.6 144.668 29.28C145.015 28.9867 145.188 28.48 145.188 27.76C145.188 27.0133 145.015 26.4933 144.668 26.2C144.321 25.88 143.761 25.6933 142.988 25.64C141.841 25.6133 140.761 25.6 139.748 25.6C138.735 25.5733 137.735 25.56 136.748 25.56C135.761 25.56 134.761 25.5733 133.748 25.6C132.735 25.6 131.655 25.6133 130.508 25.64C129.735 25.6933 129.175 25.88 128.828 26.2C128.481 26.4933 128.308 27.0133 128.308 27.76C128.308 28.48 128.481 28.9867 128.828 29.28C129.175 29.6 129.735 29.7867 130.508 29.84C131.655 29.8667 132.735 29.88 133.748 29.88C134.761 29.9067 135.761 29.92 136.748 29.92C137.735 29.92 138.735 29.9067 139.748 29.88C140.761 29.88 141.841 29.8667 142.988 29.84ZM187.164 23.48H180.804L174.724 10.92L172.724 6.68L170.404 11.28L163.924 23.48H156.004L168.204 0.88H176.124L187.164 23.48ZM168.284 28.96V17.84H175.564V28.96H188.044V34.48H155.764V28.96H168.284Z" fill="black"/>
</svg>
